# xmcd
#
# Track frame offsets:
#	150
#	13867
#	28960
#	38561
#	53346
#	66705
#	78533
#	93403
#	108158
#	119033
#	131122
#	143891
#	156978
#	172469
#	185409
#	200596
#
# Disc length: 2860 seconds
#
# Revision: 0
# Processed by: cddbd v1.4PL0 Copyright (c) Steve Scherf et al.
# Submitted via: dBpowerAMP V4.0
#
DISCID=f10b2a10
DTITLE=Mark Alan Threadgill - Falling in Love
DYEAR=1900
DGENRE=Country
TTITLE0=Full Moon Over Texas
TTITLE1=Cheating Sensations
TTITLE2=Cowboys Love Waltzes, Women and Beer
TTITLE3=Cajun Queen
TTITLE4=Without You
TTITLE5=Because of You
TTITLE6=Ain't Love Funny
TTITLE7=Wishing We Were Three
TTITLE8=Ring Telephone
TTITLE9=Falling in Love
TTITLE10=Right Side of Wrong
TTITLE11=Filling My Glass With Tears
TTITLE12=Together Again
TTITLE13=Talk to Me (I'll Talk to You)
TTITLE14=Make me Cry
TTITLE15=I'm a Drifter
EXTD=
EXTT0=
EXTT1=
EXTT2=
EXTT3=
EXTT4=
EXTT5=
EXTT6=
EXTT7=
EXTT8=
EXTT9=
EXTT10=
EXTT11=
EXTT12=
EXTT13=
EXTT14=
EXTT15=
PLAYORDER=
